# xmcd
#
# Track frame offsets:
#	150
#	19834
#	38695
#	49743
#	76506
#	95145
#	109203
#	129431
#	166099
#	183250
#	202323
#	226791
#	243587
#	261790
#	293023
#	310567
#
# Disc length: 4368 seconds
#
# Revision: 0
# Processed by: cddbd v1.5.2PL0 Copyright (c) Steve Scherf et al.
# Submitted via: EasyCDDAExtractor 15.3.0.1
#
DISCID=cc110e10
DTITLE=145th Street Deluxe Blues Band
DYEAR=1900
DGENRE=
TTITLE0=Roll The Dice
TTITLE1=Mary Ann
TTITLE2=Snakeskin On My Feet
TTITLE3=Reconsider  Baby
TTITLE4=Say Yes To My Baby
TTITLE5=Walking Through The Park
TTITLE6=It'll Come To Ya
TTITLE7=You Is So Mean
TTITLE8=Just A Little Bit
TTITLE9=Met Her Last Night
TTITLE10=I'm Ready [Live]
TTITLE11=Little Bit [Live]
TTITLE12=I Met Her Last Night [Live]
TTITLE13=Reconsider Baby [Live]
TTITLE14=Mary Ann [Live]
TTITLE15=Days Of Old [Live]
EXTD=
EXTT0=
EXTT1=
EXTT2=
EXTT3=
EXTT4=
EXTT5=
EXTT6=
EXTT7=
EXTT8=
EXTT9=
EXTT10=
EXTT11=
EXTT12=
EXTT13=
EXTT14=
EXTT15=
PLAYORDER=
